<?xml version="1.0" encoding="UTF-8" standalone="no"?>
<!-- Created with Inkscape (http://www.inkscape.org/) -->

<svg
   xmlns:dc="http://purl.org/dc/elements/1.1/"
   xmlns:cc="http://creativecommons.org/ns#"
   xmlns:rdf="http://www.w3.org/1999/02/22-rdf-syntax-ns#"
   xmlns:svg="http://www.w3.org/2000/svg"
   xmlns="http://www.w3.org/2000/svg"
   xmlns:sodipodi="http://sodipodi.sourceforge.net/DTD/sodipodi-0.dtd"
   xmlns:inkscape="http://www.inkscape.org/namespaces/inkscape"
   version="1.1"
   id="svg2"
   xml:space="preserve"
   width="230"
   height="74"
   viewBox="0 0 230 74"
   sodipodi:docname="royalcode-logo.svg"
   inkscape:version="0.92.3 (2405546, 2018-03-11)"><metadata
     id="metadata8"><rdf:RDF><cc:Work
         rdf:about=""><dc:format>image/svg+xml</dc:format><dc:type
           rdf:resource="http://purl.org/dc/dcmitype/StillImage" /><dc:title /></cc:Work></rdf:RDF></metadata><defs
     id="defs6"><clipPath
       clipPathUnits="userSpaceOnUse"
       id="clipPath18"><path
         d="M 0,0 H 375 V 375.75 H 0 Z"
         id="path16"
         inkscape:connector-curvature="0"
         style="clip-rule:evenodd" /></clipPath><clipPath
       clipPathUnits="userSpaceOnUse"
       id="clipPath30"><path
         d="M 0,0 H 375 V 375 H 0 Z"
         id="path28"
         inkscape:connector-curvature="0"
         style="clip-rule:evenodd" /></clipPath><clipPath
       clipPathUnits="userSpaceOnUse"
       id="clipPath50"><path
         d="M 41.510696,133.52046 H 162.2607 v 88.5 H 41.510696 Z"
         id="path48"
         inkscape:connector-curvature="0"
         style="clip-rule:evenodd" /></clipPath></defs><sodipodi:namedview
     pagecolor="#ffffff"
     bordercolor="#666666"
     borderopacity="1"
     objecttolerance="10"
     gridtolerance="10"
     guidetolerance="10"
     inkscape:pageopacity="0"
     inkscape:pageshadow="2"
     inkscape:window-width="1366"
     inkscape:window-height="715"
     id="namedview4"
     showgrid="false"
     inkscape:zoom="5.3400704"
     inkscape:cx="86.646634"
     inkscape:cy="30.79036"
     inkscape:window-x="-8"
     inkscape:window-y="-8"
     inkscape:window-maximized="1"
     inkscape:current-layer="g937" /><g
     id="g10"
     inkscape:groupmode="layer"
     inkscape:label="Royalcode"
     transform="matrix(1.3333333,0,0,1.3333333,0,-425.99999)"><g
       id="g42"
       transform="matrix(0.75,0,0,0.75,51.562494,211.70043)" /><g
       style="stroke-width:1.49000156"
       id="g937"
       transform="matrix(0.67114024,0,0,0.67114024,-46.895097,231.61776)"><path
         d="m 138.36661,185.45253 q 1.23636,1.35864 1.88851,3.32867 0.66573,1.97003 0.66573,4.46994 0,2.4999 -0.67932,4.48352 -0.66573,1.97003 -1.87492,3.28791 -1.24995,1.37223 -2.96184,2.06514 -1.69831,0.69291 -3.88572,0.69291 -2.13307,0 -3.88572,-0.7065 -1.73906,-0.70649 -2.96184,-2.05155 -1.22278,-1.34506 -1.88851,-3.3015 -0.65215,-1.95645 -0.65215,-4.46993 0,-2.47273 0.65215,-4.42918 0.65215,-1.97003 1.9021,-3.36943 1.1956,-1.33147 2.96184,-2.03797 1.77982,-0.70649 3.87213,-0.70649 2.17383,0 3.8993,0.72008 1.73907,0.70649 2.94826,2.02438 z m -0.24456,7.79861 q 0,-3.94007 -1.76623,-6.07314 -1.76624,-2.14665 -4.82318,-2.14665 -3.08412,0 -4.85036,2.14665 -1.75265,2.13307 -1.75265,6.07314 0,3.98082 1.79341,6.1003 1.79341,2.1059 4.8096,2.1059 3.01618,0 4.796,-2.1059 1.79341,-2.11948 1.79341,-6.1003 z"
         style="font-variant:normal;font-weight:normal;font-size:medium;font-family:LibreBaskerville;-inkscape-font-specification:LibreBaskerville-Regular;writing-mode:lr-tb;fill:#fc0657;fill-opacity:1;fill-rule:nonzero;stroke:#fc0657;stroke-width:2.23500239;stroke-opacity:1;stroke-miterlimit:4;stroke-dasharray:none"
         id="path897"
         inkscape:connector-curvature="0" /><path
         d="m 166.98457,183.12925 -7.11929,11.35825 v 8.87194 h -2.69011 v -8.58662 l -7.14646,-11.64357 h 2.97543 l 5.52967,9.04856 5.58402,-9.04856 z"
         style="font-variant:normal;font-weight:normal;font-size:medium;font-family:LibreBaskerville;-inkscape-font-specification:LibreBaskerville-Regular;writing-mode:lr-tb;fill:#fc0657;fill-opacity:1;fill-rule:nonzero;stroke:#fc0657;stroke-width:2.23500239;stroke-opacity:1;stroke-miterlimit:4;stroke-dasharray:none"
         id="path899"
         inkscape:connector-curvature="0" /><path
         d="m 192.06803,203.35944 h -2.86673 l -1.98362,-5.63837 h -8.74966 l -1.98362,5.63837 h -2.73087 l 7.36384,-20.23019 h 3.58682 z m -5.67912,-7.94806 -3.54606,-9.93168 -3.55964,9.93168 z"
         style="font-variant:normal;font-weight:normal;font-size:medium;font-family:LibreBaskerville;-inkscape-font-specification:LibreBaskerville-Regular;writing-mode:lr-tb;fill:#fc0657;fill-opacity:1;fill-rule:nonzero;stroke:#fc0657;stroke-width:2.23500239;stroke-opacity:1;stroke-miterlimit:4;stroke-dasharray:none"
         id="path901"
         inkscape:connector-curvature="0" /><path
         d="m 213.45407,203.35944 h -12.79842 v -20.23019 h 2.69012 v 17.83898 h 10.1083 z"
         style="font-variant:normal;font-weight:normal;font-size:medium;font-family:LibreBaskerville;-inkscape-font-specification:LibreBaskerville-Regular;writing-mode:lr-tb;fill:#fc0657;fill-opacity:1;fill-rule:nonzero;stroke:#fc0657;stroke-width:2.23500239;stroke-opacity:1;stroke-miterlimit:4;stroke-dasharray:none"
         id="path903"
         inkscape:connector-curvature="0" /><path
         d="m 239.56622,201.8921 q -0.74725,0.32608 -1.35864,0.61139 -0.5978,0.28532 -1.57603,0.5978 -0.82877,0.25815 -1.80699,0.43477 -0.96464,0.19021 -2.13307,0.19021 -2.201,0 -4.00799,-0.61139 -1.79341,-0.62498 -3.12488,-1.94286 -1.3043,-1.29071 -2.03797,-3.27433 -0.73366,-1.9972 -0.73366,-4.63297 0,-2.4999 0.70649,-4.46993 0.7065,-1.97003 2.03797,-3.32868 1.29071,-1.31788 3.11129,-2.01079 1.83416,-0.6929 4.06234,-0.6929 1.63037,0 3.24715,0.394 1.63037,0.39401 3.61399,1.38582 v 3.19281 h -0.20379 q -1.67113,-1.3994 -3.31509,-2.03797 -1.64396,-0.63856 -3.51889,-0.63856 -1.53526,0 -2.77163,0.5027 -1.22277,0.48911 -2.18741,1.53527 -0.93746,1.01898 -1.46734,2.58142 -0.51628,1.54885 -0.51628,3.58681 0,2.13307 0.57063,3.66834 0.58422,1.53526 1.49451,2.4999 0.95105,1.00539 2.21458,1.49451 1.27713,0.47552 2.69012,0.47552 1.94286,0 3.64116,-0.66573 1.6983,-0.66574 3.17922,-1.99721 h 0.19021 z"
         style="font-variant:normal;font-weight:normal;font-size:medium;font-family:LibreBaskerville;-inkscape-font-specification:LibreBaskerville-Regular;writing-mode:lr-tb;fill:#ffffff;fill-opacity:1;fill-rule:nonzero;stroke:none;stroke-width:1.11750114"
         id="path905"
         inkscape:connector-curvature="0" /><path
         d="m 264.39546,185.45253 q 1.23637,1.35864 1.88851,3.32867 0.66574,1.97003 0.66574,4.46994 0,2.4999 -0.67932,4.48352 -0.66574,1.97003 -1.87493,3.28791 -1.24995,1.37223 -2.96184,2.06514 -1.6983,0.69291 -3.88572,0.69291 -2.13307,0 -3.88571,-0.7065 -1.73907,-0.70649 -2.96185,-2.05155 -1.22277,-1.34506 -1.88851,-3.3015 -0.65215,-1.95645 -0.65215,-4.46993 0,-2.47273 0.65215,-4.42918 0.65215,-1.97003 1.9021,-3.36943 1.19561,-1.33147 2.96184,-2.03797 1.77982,-0.70649 3.87213,-0.70649 2.17383,0 3.89931,0.72008 1.73906,0.70649 2.94825,2.02438 z m -0.24455,7.79861 q 0,-3.94007 -1.76624,-6.07314 -1.76623,-2.14665 -4.82318,-2.14665 -3.08412,0 -4.85035,2.14665 -1.75265,2.13307 -1.75265,6.07314 0,3.98082 1.7934,6.1003 1.79341,2.1059 4.8096,2.1059 3.01619,0 4.79601,-2.1059 1.79341,-2.11948 1.79341,-6.1003 z"
         style="font-variant:normal;font-weight:normal;font-size:medium;font-family:LibreBaskerville;-inkscape-font-specification:LibreBaskerville-Regular;writing-mode:lr-tb;fill:#ffffff;fill-opacity:1;fill-rule:nonzero;stroke:none;stroke-width:1.11750114"
         id="path907"
         inkscape:connector-curvature="0" /><path
         d="m 295.78505,193.26472 q 0,2.75805 -1.20919,4.99981 -1.19561,2.24176 -3.19281,3.47812 -1.38582,0.85595 -3.09771,1.23637 -1.6983,0.38042 -4.48352,0.38042 h -5.10849 v -20.23019 h 5.05415 q 2.96184,0 4.7009,0.43476 1.75265,0.42118 2.96184,1.16844 2.06514,1.29071 3.21999,3.43736 1.15484,2.14666 1.15484,5.09491 z m -2.81239,-0.0408 q 0,-2.37762 -0.82877,-4.00799 -0.82877,-1.63037 -2.47273,-2.56784 -1.19561,-0.67932 -2.54066,-0.93746 -1.34506,-0.27173 -3.21998,-0.27173 h -2.52708 v 15.6108 h 2.52708 q 1.94285,0 3.38302,-0.28531 1.45374,-0.28532 2.66294,-1.05974 1.50809,-0.96464 2.25534,-2.54066 0.76084,-1.57603 0.76084,-3.94007 z"
         style="font-variant:normal;font-weight:normal;font-size:medium;font-family:LibreBaskerville;-inkscape-font-specification:LibreBaskerville-Regular;writing-mode:lr-tb;fill:#ffffff;fill-opacity:1;fill-rule:nonzero;stroke:none;stroke-width:1.11750114"
         id="path909"
         inkscape:connector-curvature="0" /><path
         d="m 319.67554,203.35944 h -13.32828 v -20.23019 h 13.32828 v 2.39121 h -10.63817 v 5.54326 h 10.63817 v 2.39121 h -10.63817 v 7.5133 h 10.63817 z"
         style="font-variant:normal;font-weight:normal;font-size:medium;font-family:LibreBaskerville;-inkscape-font-specification:LibreBaskerville-Regular;writing-mode:lr-tb;fill:#ffffff;fill-opacity:1;fill-rule:nonzero;stroke:none;stroke-width:1.11750114"
         id="path911"
         inkscape:connector-curvature="0" /><g
         style="stroke-width:0.97516018;fill:#ffffff;fill-opacity:1"
         transform="matrix(1.5279557,0,0,1.5279557,-38.147577,-107.9109)"
         id="g44"><g
           style="fill:#ffffff;fill-opacity:1;stroke-width:0.97516018"
           clip-path="url(#clipPath50)"
           id="g46"><g
             style="fill:#ffffff;fill-opacity:1;stroke-width:0.97516018"
             transform="matrix(0.35103852,0,0,0.35119045,41.565865,133.52046)"
             id="g52"><path
               inkscape:connector-curvature="0"
               id="path54"
               style="fill:#ffffff;fill-opacity:1;fill-rule:evenodd;stroke:none;stroke-width:0.97516018"
               d="m 120.55116,208.48041 h -0.94023 c -0.38184,-0.15584 -0.81946,-0.24325 -1.1254,-0.49167 -0.21737,-0.17712 -0.32721,-0.0357 -0.52963,-0.0109 0.0443,-0.27545 -0.15987,-0.226 -0.30133,-0.30076 -0.11962,-0.0633 -0.13629,-0.2996 -0.23118,-0.43704 -0.14204,-0.20644 -0.38241,-0.36516 -0.23865,-0.67685 0.0201,-0.0426 -0.0253,-0.14318 -0.0702,-0.18402 -0.30478,-0.27833 -0.29328,-0.65269 -0.31513,-1.01442 -0.0529,-0.87639 0.0713,-1.73495 0.2812,-2.58374 0.12479,-0.50492 0.12882,-1.00579 -0.0299,-1.58028 -0.21795,0.16217 -0.38299,0.28178 -0.54458,0.40657 -1.84135,1.42213 -3.79197,2.64931 -6.02551,3.36987 -0.64177,0.20644 -1.19268,0.64291 -1.88333,0.73205 -0.12076,0.0155 -0.22255,0.15871 -0.33871,0.23463 -0.42152,0.27545 -0.83959,0.55896 -1.27146,0.81716 -0.29846,0.17885 -0.60784,0.1639 -0.858,-0.10005 -0.20357,-0.21508 -0.41922,-0.23981 -0.70502,-0.19035 -0.66363,0.11501 -1.31287,0.10524 -1.88966,-0.34619 -0.13341,-0.10466 -0.35941,-0.12479 -0.54286,-0.12651 -1.54001,-0.0161 -2.85518,-0.55207 -3.912144,-1.68091 -0.181145,-0.19322 -0.346187,-0.2076 -0.59634,-0.1662 -0.355388,0.0598 -0.729179,0.0725 -1.086867,0.0339 -0.453724,-0.0495 -0.88272,-0.46177 -0.921249,-0.80566 -0.05003,-0.45143 -0.02645,-0.89883 0.148941,-1.32035 0.233476,-0.56069 0.493404,-1.10986 0.733205,-1.6671 0.122487,-0.28523 0.256477,-0.57104 0.331235,-0.87007 0.18862,-0.75218 0.488229,-1.44628 0.923551,-2.08805 0.370915,-0.54689 0.722278,-1.107 1.069616,-1.66826 0.413472,-0.66822 0.872942,-1.29504 1.435352,-1.85055 0.54344,-0.53711 1.05639,-1.1047 1.56705,-1.67286 0.38356,-0.42669 0.73033,-0.88675 1.11447,-1.31344 2.86323,-3.18182 5.72417,-6.3665 8.60178,-9.53625 3.02253,-3.3296 5.788,-6.86164 8.35911,-10.54836 0.10121,-0.1455 0.19149,-0.29846 0.28695,-0.4474 -0.55551,0.15066 -1.04086,0.37436 -1.53311,0.58254 -2.22607,0.94022 -4.46191,1.85745 -6.6782,2.81895 -1.37038,0.59461 -2.7304,1.21223 -4.03694,1.95004 -0.75218,0.4244 -1.57912,0.72457 -2.39111,1.03166 -0.86087,0.32491 -1.6694,0.20473 -2.39168,-0.40886 -0.24555,-0.20876 -0.37552,-0.44625 -0.38874,-0.75966 -0.0276,-0.6665 0.0155,-1.32495 0.28983,-1.94372 0.26108,-0.58771 0.50088,-1.18922 0.81774,-1.74646 0.85971,-1.50896 1.6671,-3.05646 2.92476,-4.29917 0.23405,-0.2306 0.42497,-0.50605 0.6251,-0.76885 0.81946,-1.07652 1.79476,-1.98455 2.91154,-2.74593 0.53193,-0.36229 1.04086,-0.75792 1.57049,-1.12251 0.19035,-0.13112 0.29098,-0.28696 0.30593,-0.51181 0.0132,-0.20243 0.0345,-0.40427 0.0523,-0.60841 h -0.36631 c 0.13284,-0.28753 0.50605,-0.33411 0.58657,-0.66823 -0.0771,0.01 -0.11732,0.003 -0.13802,0.0196 -0.2145,0.1777 -0.4313,0.35252 -0.63717,0.53941 -2.29853,2.08633 -4.74427,3.97771 -7.3654,5.64539 -1.05581,0.67224 -2.0662,1.4158 -3.08578,2.14325 -0.26626,0.18978 -0.48823,0.44108 -0.73436,0.6596 -0.10868,0.0966 -0.22657,0.1823 -0.35941,0.28869 -0.0989,-0.31111 -0.0978,-0.30997 -0.004,-0.4658 0.18862,-0.31226 0.38989,-0.6182 0.55953,-0.94081 0.52791,-1.00291 1.10987,-1.96959 1.85228,-2.83218 0.70445,-0.81717 1.40603,-1.63606 2.10703,-2.45609 0.0316,-0.0362 0.046,-0.0874 0.073,-0.14261 -0.10409,-0.0702 -0.19955,-0.13342 -0.31744,-0.21336 0.11502,-0.15583 0.2122,-0.2973 0.31859,-0.43014 1.52506,-1.89943 3.03345,-3.81267 4.58209,-5.69311 2.12486,-2.58031 4.34173,-5.0755 6.78574,-7.36828 1.96729,-1.84479 3.84889,-3.77988 5.78973,-5.65343 1.70218,-1.64295 3.43312,-3.25773 5.1537,-4.88228 0.27833,-0.2628 0.57506,-0.50605 0.84707,-0.77518 0.0517,-0.0512 0.0259,-0.18172 0.0454,-0.36402 -0.99083,0.59634 -1.89196,1.11907 -2.69934,1.78558 -0.14722,0.12133 -0.28638,0.25819 -0.44855,0.35596 -0.0667,0.0397 -0.22083,0.0288 -0.26913,-0.0219 -0.0535,-0.0558 -0.0627,-0.19552 -0.0328,-0.27719 0.0322,-0.0897 0.12594,-0.16044 0.20185,-0.23002 1.79362,-1.65043 3.49292,-3.38424 5.08009,-5.24285 2.06735,-2.421 3.84832,-5.02718 5.41019,-7.78748 0.94425,-1.66826 1.94773,-3.29396 3.10706,-4.82133 1.05179,-1.3859 2.15016,-2.73844 3.16054,-4.15367 2.30773,-3.23415 4.79315,-6.31361 7.49939,-9.22687 2.87531,-3.09556 5.63676,-6.29751 8.50747,-9.375243 0,-0.306508 -0.0144,-0.627967 0.003,-0.947702 0.0259,-0.462925 0.23003,-0.866618 0.44452,-1.269162 0.0857,-0.160442 0.11731,-0.352513 0.15584,-0.534234 0.0362,-0.171368 0.0495,-0.347912 0.0719,-0.516405 -0.0627,0.01035 -0.16734,0.02645 -0.38758,0.06211 0.13284,-0.228299 0.18632,-0.402544 0.30248,-0.504904 0.47328,-0.41462 0.70388,-0.97473 0.9707,-1.518164 0.1455,-0.295582 0.31514,-0.581963 0.49399,-0.859142 1.21394,-1.881029 2.96444,-2.879336 5.16923,-3.124889 0.069,-0.0075 0.13571,-0.03048 0.2398,-0.05463 -0.25187,-0.215074 -0.60668,-0.119613 -0.76195,-0.483627 h 0.747 v -0.797612 c 0.38587,0.136865 0.77058,0.27258 1.15473,0.408293 -0.22658,-0.303057 -0.49226,-0.525031 -0.73667,-0.767707 -0.14261,-0.141465 -0.30018,-0.28638 -0.17942,-0.545159 0.0431,-0.09201 -0.0391,-0.242101 -0.0914,-0.498579 0.56414,0.343312 1.02591,0.625092 1.48769,0.906298 -0.13111,-0.237501 -0.31744,-0.41462 -0.46523,-0.620493 -0.14664,-0.204146 -0.43359,-0.362288 -0.31053,-0.727453 0.50491,0.143766 0.76713,0.60554 1.26687,0.849367 -0.22658,-0.444523 -0.61302,-0.726879 -0.6849,-1.294465 0.59059,0.562411 1.1001,1.047188 1.62398,1.545767 1.58775,-1.426154 3.29855,-2.587205 5.06974,-3.714326 -0.13801,-0.05981 -0.22197,-0.09661 -0.37091,-0.161593 0.21334,-0.136289 0.36171,-0.257628 0.5302,-0.333536 0.41117,-0.184594 0.82751,-0.361139 1.25018,-0.517556 0.45143,-0.167343 0.95748,-0.511805 1.12137,-0.803361 -0.0546,0 -0.10696,-5.75e-4 -0.15814,0 -0.46924,0.01093 -0.64924,-0.06843 -0.68662,-0.302482 -0.0351,-0.220825 0.12709,-0.391043 0.54574,-0.533083 1.13575,-0.385291 2.26862,-0.78036 3.41299,-1.137473 0.67972,-0.211623 1.37037,-0.417496 2.07194,-0.517556 0.75046,-0.107537 1.44572,-0.353663 2.15476,-0.588864 0.97243,-0.323185 1.95291,-0.625093 2.93972,-0.902847 0.7332,-0.206448 1.48136,-0.358839 2.22262,-0.535383 h 0.7309 c 0.36114,0.119613 0.74067,0.200697 1.07997,0.364589 0.98278,0.475002 2.01099,0.746431 3.09614,0.857418 1.19325,0.121913 2.37902,0.314559 3.58551,0.243827 0.97242,-0.05693 1.94601,-0.09489 2.91902,-0.145492 0.4612,-0.02415 0.92182,-0.05923 1.38245,-0.08913 0.002,-0.02588 0.004,-0.05233 0.006,-0.07821 -0.1524,-0.03738 -0.30479,-0.07476 -0.45775,-0.112712 -0.0357,-0.204148 0.073,-0.265679 0.24612,-0.32376 1.15012,-0.382417 2.32267,-0.388167 3.5073,-0.237501 0.38414,0.04888 0.74528,0.152391 1.15071,-0.03795 0.27717,-0.130539 0.65384,-0.108112 0.97588,-0.06958 0.63659,0.07476 1.27434,0.175969 1.89828,0.32376 1.54979,0.36804 2.97825,1.047188 4.39117,1.766016 0.60094,0.305932 1.22834,0.560685 1.82754,0.831539 0.27432,-0.319735 0.28064,-0.334111 0.58599,-0.259353 0.40484,0.09891 0.80279,0.223699 1.20591,0.331236 0.0972,0.02588 0.24267,0.07648 0.29442,0.03278 0.31859,-0.274304 0.63603,-0.09258 0.93966,-0.0069 0.39909,0.112711 0.78438,0.274304 1.176,0.41232 0.0627,0.02243 0.15527,0.06671 0.19149,0.04083 0.25936,-0.182294 0.53711,-0.07303 0.85857,-0.01553 -0.26798,-0.432447 -0.57564,-0.765983 -0.61186,-1.238684 0.16101,0.112712 0.27832,0.258203 0.40656,0.392769 0.31111,0.326635 0.62164,0.65557 0.94541,0.970129 0.15124,0.147217 0.3318,0.265104 0.56298,0.06383 -0.26913,-0.201847 -0.54459,-0.380691 -0.78611,-0.597489 -0.24152,-0.216798 -0.56931,-0.37149 -0.69755,-0.849942 0.36919,0.204146 0.64465,0.357113 0.92527,0.512381 0.0282,-0.131689 0.0477,-0.224274 0.0771,-0.364015 0.27085,0.189771 0.49398,0.346187 0.73723,0.516407 0.073,-0.347913 0.28236,-0.282931 0.47501,-0.173094 0.42267,0.240951 0.83383,0.503179 1.25363,0.749306 0.0932,0.05463 0.20242,0.08108 0.36689,0.14434 -0.096,-0.428997 -0.45661,-0.705027 -0.3439,-1.179453 0.26684,0.108111 0.50663,0.194371 0.73723,0.300182 0.34734,0.159867 0.68605,0.336986 1.03224,0.499729 0.56126,0.263378 1.14265,0.396793 1.77119,0.319159 0.27316,-0.03393 0.55551,-0.0092 0.83212,0.0138 0.63947,0.05291 1.27721,0.134564 1.91726,0.177694 0.41462,0.0276 0.82981,-0.01265 1.22201,0.192071 0.15988,0.08396 0.36229,0.08568 0.54687,0.125364 0.11732,-0.651545 0.1317,-0.663622 0.78152,-0.646945 0.1915,0.0046 0.38299,0.01093 0.57391,0.01898 1.28239,0.05751 2.46242,0.377815 3.46474,1.242708 0.34101,0.293857 0.79243,0.401969 1.24098,0.421521 0.22484,-0.438772 0.28293,-0.469825 0.66995,-0.228875 0.75275,0.468676 1.50034,0.946552 2.23412,1.444556 0.23636,0.160443 0.47328,0.267979 0.75104,0.32031 0.9132,0.171369 1.77865,0.484202 2.57569,0.961505 1.4532,0.870643 2.79309,1.890229 3.97656,3.108211 0.0897,0.09258 0.19669,0.168493 0.32549,0.27718 0.0627,-0.223699 0.10812,-0.388167 0.16448,-0.588289 0.59231,0.312258 0.99429,0.744706 1.38072,1.187503 1.5107,1.733813 2.6752,3.679825 3.51938,5.817905 0.0702,0.177695 0.12824,0.363439 0.22371,0.526757 0.68144,1.165652 1.12251,2.427338 1.47906,3.720076 0.16619,0.602661 0.24325,1.234661 0.46004,1.816621 0.20012,0.53768 0.17195,1.04374 0.0926,1.58257 -0.0523,0.35539 -0.0328,0.7217 -0.0391,1.08342 -5.8e-4,0.0391 0.0385,0.11213 0.0621,0.11328 0.26912,0.0144 0.1892,0.2145 0.16331,0.34332 -0.0638,0.32261 -0.12881,0.64982 -0.24669,0.95402 -0.14376,0.36977 -0.34217,0.71826 -0.52791,1.09837 0.37897,0.63487 0.60095,1.32265 0.5348,2.07713 -0.0891,1.01326 -0.31398,1.99431 -0.81544,2.88854 -0.15641,0.27833 -0.21506,0.5279 -0.11961,0.83671 0.0477,0.15527 0.009,0.33699 0.009,0.57392 0.1547,0.0983 0.25015,0.2789 0.0868,0.5463 -0.19439,0.31801 -0.18805,0.63027 0.027,0.95806 0.17999,0.2743 0.30881,0.58368 0.45201,0.88099 1.02477,2.12371 1.61362,4.3607 1.74302,6.7173 0.009,0.15067 0.0621,0.29903 0.0949,0.44798 v 2.50612 c -0.0368,0.41116 -0.0903,0.82176 -0.10754,1.23408 -0.0339,0.84477 -0.21565,1.65503 -0.55552,2.42504 -0.20471,0.46465 -0.39851,0.53136 -0.87007,0.34619 -0.14318,-0.0564 -0.28636,-0.13457 -0.40139,-0.2352 -0.28811,-0.2513 -0.57564,-0.50606 -0.83499,-0.78611 -0.91377,-0.98565 -1.68722,-2.07885 -2.421,-3.20195 -0.91377,-1.3974 -1.82928,-2.79422 -2.74592,-4.1899 -0.13169,-0.20127 -0.27487,-0.39507 -0.39679,-0.56931 -0.50549,0.05 -0.96151,0.0995 -1.41869,0.13514 -0.0788,0.006 -0.16101,-0.0581 -0.24439,-0.0748 -0.46178,-0.0914 -0.92011,-0.13514 -1.37843,0.0368 -0.13629,0.0512 -0.31513,0.0926 -0.43647,0.0437 -0.0725,-0.0293 -0.0707,-0.2421 -0.10237,-0.37264 -0.84534,0.0742 -0.84534,0.0742 -1.1576,-0.0943 0.0644,-0.0719 0.12422,-0.13859 0.18345,-0.20415 -0.57506,0 -1.14667,-0.0264 -1.71484,0.007 -0.61416,0.0362 -1.05639,-0.35654 -1.65158,-0.53021 0.15067,-0.19379 0.26165,-0.33641 0.3876,-0.49857 -0.0702,-0.0322 -0.13227,-0.0886 -0.18632,-0.0817 -0.58196,0.0742 -1.1392,-0.14664 -1.72978,-0.0978 -1.49058,0.12249 -2.9863,0.17884 -4.48089,0.25418 -1.03166,0.0523 -2.03916,0.21392 -2.99722,0.61761 -0.0633,0.0265 -0.15067,0.0822 -0.19264,0.0598 -0.25245,-0.13457 -0.36977,0.0621 -0.51871,0.18977 -0.22485,0.1915 -0.4359,0.40714 -0.80913,0.52848 0.10409,-0.29845 0.17368,-0.49858 0.24384,-0.6987 -0.0253,-0.0172 -0.0512,-0.0351 -0.0771,-0.0529 -0.24326,0.22772 -0.48707,0.45487 -0.79013,0.73837 -0.0259,-0.2283 -0.0414,-0.36401 -0.0604,-0.53365 -0.10811,0.0506 -0.20989,0.0667 -0.22312,0.10983 -0.10523,0.33469 -0.38299,0.41807 -0.67167,0.49858 -0.16735,0.0466 -0.32779,0.11961 -0.49685,0.15699 -0.46235,0.10294 -0.80566,0.3646 -1.12022,0.71423 -0.38241,0.42439 -0.81085,0.80911 -1.22948,1.20015 -0.10351,0.0966 -0.24556,0.15182 -0.45718,0.27833 0.13744,-0.54688 0.66879,-0.86662 0.39794,-1.47618 -0.36862,0.43935 -0.23347,1.11274 -0.7792,1.47388 -0.0552,-0.0926 -0.10639,-0.17654 -0.11501,-0.19149 -0.2122,0.0293 -0.36747,0.0506 -0.6412,0.088 -0.14204,0.18172 -0.36114,0.47098 -0.58944,0.75333 -0.71135,0.87812 -1.40027,1.77637 -2.1467,2.62401 -0.78554,0.89193 -1.69702,1.64698 -2.74535,2.22434 -0.78611,0.43303 -1.6142,0.73896 -2.5159,0.79014 -0.23922,0.0132 -0.39104,0.10007 -0.50491,0.29558 -0.0702,0.11961 -0.15182,0.2329 -0.22772,0.34964 -3.04725,4.69654 -6.36824,9.17685 -10.39828,13.0913 -0.48362,0.46982 -0.90686,0.95057 -1.03856,1.63605 -0.0322,0.16792 -0.1196,0.32548 -0.19034,0.48477 -0.75045,1.70391 -1.59925,3.35779 -2.52567,4.97199 -0.0345,0.0598 -0.0684,0.16446 -0.11098,0.16964 -0.43762,0.0477 -0.51641,0.51124 -0.82234,0.6964 -0.40254,0.2444 -0.62222,0.64349 -0.91664,0.98106 -0.27373,0.3134 -0.56414,0.61301 -0.86202,0.90399 -0.0851,0.084 -0.21853,0.11674 -0.33009,0.1731 -0.0305,-0.0276 -0.0604,-0.0558 -0.0903,-0.0834 0.35482,-0.51698 0.75678,-1.01384 0.82119,-1.68954 -0.74068,0.85857 -1.46066,1.69357 -2.19387,2.54466 0.10812,0.12306 0.20875,0.24095 0.31226,0.35596 0.73493,0.81371 1.48136,1.61707 2.20019,2.44401 0.28465,0.32779 0.60957,0.55896 1.01614,0.69411 0.61014,0.20357 1.21797,0.41404 1.82352,0.62911 0.4244,0.15066 0.76254,0.40945 0.97071,0.82118 0.0345,0.0673 0.0886,0.12479 0.13858,0.19381 0.17655,-0.1478 0.31859,-0.27603 0.4704,-0.3922 0.8764,-0.66879 1.71196,-0.50778 2.2807,0.44452 0.16907,0.2835 0.30421,0.58713 0.47386,0.87007 0.0765,0.12881 0.17941,0.2605 0.30363,0.33756 0.48708,0.30134 0.98853,0.57966 1.48193,0.87065 0.8718,0.5141 1.70391,1.08168 2.43136,1.79131 0.13687,0.13284 0.28638,0.26511 0.38241,0.42556 0.22773,0.38069 0.52446,0.67511 0.90055,0.91262 0.3157,0.19955 0.56471,0.49455 0.59749,0.87928 0.0426,0.50087 0.0403,1.00635 0.0299,1.50953 -0.006,0.25936 -0.0701,0.51008 -0.29213,0.701 -0.0725,0.0621 -0.0995,0.2122 -0.0989,0.32261 0.007,1.05294 -0.46638,1.95291 -0.94196,2.83794 -0.17252,0.32031 -0.49685,0.58195 -0.80048,0.80336 -0.72228,0.5279 -1.81317,0.10466 -2.04377,-0.77116 -0.019,-0.0713 0.0178,-0.15642 0.0293,-0.2375 0.2099,0 0.38126,0.002 0.55206,0 0.37954,-0.005 0.6941,-0.17655 0.87295,-0.48995 0.32663,-0.57392 0.61186,-1.17313 0.53596,-1.79937 -0.32089,-0.33469 -0.63084,-0.59634 -0.85742,-0.9178 -0.15009,-0.21162 -0.26798,-0.51813 -0.24267,-0.76599 0.0397,-0.38184 -0.088,-0.63198 -0.34331,-0.87236 -0.15182,-0.14204 -0.26569,-0.32492 -0.42153,-0.46177 -0.18459,-0.1616 -0.39564,-0.29386 -0.61818,-0.45546 -0.17195,0.41002 -0.0397,0.72286 0.0403,1.03627 0.12478,0.48823 0.2858,0.96783 0.38759,1.46008 0.18747,0.90515 0.15182,1.78327 -0.30479,2.63034 -0.28523,0.52963 -0.50318,1.10009 -0.70445,1.66825 -0.38011,1.0725 -0.85857,2.04722 -1.98281,2.54121 -0.42843,0.18862 -0.82465,0.44855 -1.24559,0.65557 -0.26395,0.12996 -0.54171,0.23864 -0.82349,0.32376 -0.17079,0.0517 -0.42555,0.16792 -0.51698,-0.0454 -0.0667,-0.15642 0.0184,-0.39104 0.0707,-0.58024 0.0247,-0.0897 0.13283,-0.15584 0.20242,-0.23405 0.33296,-0.3761 0.67915,-0.74182 0.99485,-1.13172 0.38818,-0.47903 0.62338,-1.04202 0.80337,-1.62743 0.0638,-0.20875 0.0477,-0.38126 -0.0863,-0.58254 -0.53596,-0.80508 -0.4658,-2.09897 0.12537,-2.89256 0.32088,-0.43015 0.33813,-0.74874 0.0391,-1.18981 -0.38185,-0.56298 -0.56356,-1.17312 -0.5952,-1.85802 -0.0184,-0.40369 -0.15986,-0.81026 -0.2996,-1.19613 -0.0575,-0.15757 -0.23578,-0.31341 -0.39621,-0.38358 -0.4129,-0.17999 -0.8488,-0.2996 -1.33357,-0.24152 -0.19149,0.69352 -0.5509,1.27549 -1.08572,1.74704 -0.0891,0.0788 -0.16447,0.18402 -0.21565,0.29212 -0.28236,0.59462 -0.56069,1.19154 -0.82809,1.79305 -0.10582,0.2375 -0.16331,0.49628 -0.27085,0.73205 -0.18747,0.41116 -0.42324,0.51698 -0.83729,0.40944 -0.41979,-0.10926 -0.56643,-0.30478 -0.55551,-0.7539 0.003,-0.12134 0.0121,-0.24441 0.0357,-0.36287 0.15986,-0.80106 0.28408,-1.61189 0.5003,-2.39744 0.16849,-0.61129 0.0362,-1.17944 -0.14435,-1.7246 -0.17597,-0.53193 -0.28005,-1.03396 -0.11558,-1.5751 0.0633,-0.20932 0.0621,-0.41922 -0.0943,-0.59058 -0.25763,-0.28179 -0.49111,-0.59979 -0.7936,-0.82406 -1.90115,-1.40833 -3.81265,-2.8017 -5.73221,-4.18531 -1.07077,-0.77172 -2.20422,-1.46238 -3.10074,-2.47506 -1.29791,1.07019 -2.78732,1.71656 -4.36185,2.18868 -0.23232,0.0696 -0.47155,0.12537 -0.71193,0.15584 -0.32088,0.0403 -0.37896,-0.0265 -0.39737,-0.41864 -0.35941,0.19552 -0.70501,0.38357 -1.04086,0.56585 -0.11041,-0.0839 -0.21047,-0.12996 -0.26395,-0.20759 -0.0552,-0.0811 -0.065,-0.19322 -0.096,-0.29845 -0.19149,0.15297 -0.38357,0.2996 -0.56817,0.45602 -0.59116,0.5003 -0.99658,1.18865 -1.80339,1.47792 -0.53136,0.19033 -0.76081,0.3065 -1.24156,-0.0408 0.25476,0.009 0.54229,0.12363 0.66478,-0.24613 0.0173,-0.0517 0.14606,-0.0771 0.22772,-0.0937 0.203,-0.042 0.40887,-0.0707 0.61244,-0.10926 0.0224,-0.005 0.038,-0.0426 0.0684,-0.0794 -0.0845,-0.0541 -0.16849,-0.10754 -0.32606,-0.20702 0.21565,-0.0782 0.32032,-0.12019 0.42785,-0.15413 0.12594,-0.0391 0.2536,-0.0719 0.36804,-0.10466 -0.0379,-0.12939 -0.065,-0.21968 -0.0914,-0.30996 0.81888,-0.2513 0.88042,-0.34043 0.6734,-1.02649 -0.17655,0.13802 -0.34504,0.24844 -0.48823,0.38473 -0.51525,0.4888 -1.01671,0.99083 -1.5337,1.47675 -0.18458,0.17367 -0.39794,0.31743 -0.59863,0.47443 -0.21623,0.25647 -0.45545,0.47385 -0.86604,0.43359 0.62911,-0.64924 1.25823,-1.29792 1.88678,-1.94716 -0.47213,0.21623 -0.88214,0.50318 -1.31805,0.7424 -0.28523,0.15642 -0.60554,0.25303 -0.91723,0.35539 -0.0656,0.0219 -0.16216,-0.0489 -0.28638,-0.0914 0.48766,-0.32662 0.92356,-0.61933 1.36004,-0.91204 -0.0184,-0.0351 -0.0368,-0.0696 -0.0552,-0.10467 -0.17137,0.069 -0.34561,0.13169 -0.51354,0.2076 -0.37954,0.17079 -0.75045,0.36229 -1.13517,0.5187 -1.02763,0.41922 -2.09322,0.63027 -3.21,0.55493 -1.03051,-0.0696 -2.02593,-0.29903 -3.00412,-0.62163 -0.13284,-0.0437 -0.27028,-0.0736 -0.46695,-0.12652 0.51525,1.06789 0.99774,2.0478 1.65216,2.93454 0.5164,0.69985 1.04546,1.39395 1.50666,2.12946 0.72055,1.1507 1.61304,2.13175 2.67173,2.97307 0.34791,0.27602 0.53998,0.30593 0.94137,0.11903 0.18459,-0.0857 0.39104,-0.18056 0.58599,-0.17769 0.24842,0.004 0.43188,-0.0857 0.62337,-0.21162 0.6941,-0.45488 1.41408,-0.54746 2.16684,-0.14089 0.0236,0.0126 0.0644,-0.007 0.11788,-0.0138 0.0788,-0.11731 0.14951,-0.26222 0.25648,-0.37092 0.11789,-0.11903 0.26165,-0.21622 0.40714,-0.30075 0.15814,-0.092 0.34734,-0.13629 0.4957,-0.2398 0.57909,-0.40542 1.22316,-0.6527 1.91438,-0.51641 0.5164,0.10179 0.95518,5.8e-4 1.41178,-0.18056 0.57448,-0.22773 1.2243,-0.15872 1.78615,-0.45373 0.0955,-0.05 0.2421,-0.023 0.36056,-0.005 0.34274,0.0523 0.6849,0.11041 1.02361,0.18172 0.48881,0.10236 0.76886,0.45199 0.80278,0.95 0.009,0.12651 0.0414,0.27143 0.11386,0.37033 0.66421,0.90688 1.19556,1.88103 1.43708,2.98343 0.11846,0.53883 0.20185,1.09894 0.19495,1.6487 -0.0138,1.13806 -0.53193,1.75913 -1.62053,2.06333 0.1455,0.33756 0.33412,0.62682 0.61187,0.88444 0.21795,0.20243 0.36114,0.49915 0.4934,0.77576 0.10236,0.21335 0.14204,0.45832 0.19897,0.69122 0.0978,0.40083 0.32779,0.80623 0.17022,1.21568 -0.21277,0.55321 -0.20184,1.11734 -0.20127,1.68436 5.7e-4,0.7217 -0.0678,1.43939 -0.38932,2.08345 -0.57564,1.15301 -1.87816,1.78499 -3.14789,1.57395 -0.69064,-0.11502 -1.22775,-0.46868 -1.54519,-1.11448 -0.0834,-0.16907 -0.15642,-0.33756 0.042,-0.57391 0.33871,0.52043 0.81947,0.57564 1.30481,0.40714 0.37092,-0.12881 0.7079,-0.35999 1.04835,-0.56471 0.096,-0.0575 0.18344,-0.17367 0.21736,-0.28063 0.15585,-0.49513 0.27662,-0.99773 0.18403,-1.51472 -0.0466,-0.0132 -0.0627,-0.0224 -0.0794,-0.0224 -0.069,5.8e-4 -0.13802,0.003 -0.20702,0.005 -0.68432,0.0219 -1.21683,-0.26856 -1.59178,-0.8258 -0.33813,-0.50145 -0.52215,-1.06444 -0.47615,-1.67573 0.0161,-0.21853 0.0771,-0.44682 0.17252,-0.64407 0.22657,-0.46752 0.13802,-0.70157 -0.37781,-0.80795 -0.42497,-0.0886 -0.858,-0.13974 -1.28642,-0.21336 -0.42209,-0.0719 -0.79071,-0.2306 -1.07594,-0.5785 -0.16044,-0.19553 -0.38069,-0.34217 -0.67053,-0.59462 0.11157,0.36977 0.2053,0.609 0.25533,0.85685 0.134,0.67167 0.22946,1.3537 -0.16101,1.97418 -0.14491,0.23003 -0.14376,0.4221 -0.10582,0.67628 0.13456,0.8879 -0.0316,1.7039 -0.7309,2.33417 -0.54286,0.48938 -1.43191,0.4842 -1.96096,-0.005 -0.065,-0.0598 -0.12077,-0.19092 -0.0995,-0.26626 0.0201,-0.0696 0.14204,-0.13858 0.22945,-0.15583 0.4175,-0.084 0.4681,-0.10294 0.48823,-0.50433 0.0247,-0.50031 0.006,-1.00291 0.006,-1.47389 -0.83959,-0.50663 -1.42385,-1.18291 -1.74129,-2.05412 -0.11559,-0.31744 -0.25705,-0.59519 -0.45027,-0.8672 -0.29731,-0.41922 -0.74299,-0.61014 -1.1622,-0.85282 -0.18575,-0.10753 -0.34331,-0.13225 -0.53712,-0.0564 -0.30707,0.12077 -0.61991,0.22772 -0.92872,0.34389 -0.33124,0.12422 -0.6366,0.0667 -0.95632,-0.073 -0.64522,-0.28235 -0.96036,-0.81773 -1.20764,-1.43133 -0.0805,-0.19955 -0.20013,-0.41347 -0.36402,-0.54228 -0.57563,-0.45602 -0.96782,-1.02534 -1.24846,-1.70046 -0.22542,-0.54228 -0.50432,-1.06559 -0.78783,-1.58142 -0.2513,-0.4566 -0.5302,-0.89882 -0.81544,-1.3353 -0.93274,-1.42615 -1.86205,-2.85518 -2.8178,-4.26581 -0.24843,-0.36689 -0.58771,-0.67167 -0.85799,-0.97416 -0.37034,0.0989 -0.46178,0.29559 -0.51124,0.58887 -0.14951,0.88962 -0.29615,1.78442 -0.52848,2.65392 -0.71251,2.66426 -1.81259,5.18188 -3.0139,7.65522 -2.62919,5.41306 -5.49472,10.70364 -8.32402,16.01319 -1.59925,3.00124 -3.4107,5.89496 -4.64306,9.08483 -0.19379,0.50203 -0.43934,0.98451 -0.67397,1.46986 -0.2651,0.54689 -0.53711,1.09147 -0.82579,1.62685 -0.0558,0.10409 -0.20645,0.22313 -0.30593,0.21738 -0.10179,-0.006 -0.22542,-0.14204 -0.28293,-0.25073 -0.0713,-0.13399 -0.0845,-0.29961 -0.12191,-0.45143 -0.11501,-0.46753 -0.22887,-0.9362 -0.34389,-1.4043 -0.023,0.77058 -0.009,1.53311 0.069,2.28933 0.0288,0.28293 -0.002,0.51238 -0.15527,0.73493 -0.2168,0.31513 -0.46868,0.61071 -0.64925,0.94482 -0.88214,1.6349 -2.04032,3.06853 -3.233,4.47629 -0.2444,0.28868 -0.5279,0.5647 -0.84476,0.76598 -0.51238,0.32548 -1.06157,0.59404 -1.60558,0.86662 -0.44452,0.22312 -0.4888,0.20299 -0.86201,-0.18804 -0.64465,0.64349 -1.41063,1.11274 -2.23584,1.49285 -0.59922,0.27546 -1.19096,0.56759 -1.78845,0.84765 -0.12536,0.0592 -0.25762,0.12478 -0.39162,0.13744 -0.62106,0.0598 -1.1783,0.27027 -1.6901,0.62566 -0.25188,0.17482 -0.52849,0.15182 -0.78842,-0.007 -0.13111,-0.0805 -0.25417,-0.17252 -0.39449,-0.26855 -0.4612,0.44165 -0.97243,0.4014 -1.50609,0.17539 -0.30363,-0.12939 -0.61646,-0.23807 -0.91722,-0.37378 -0.18575,-0.084 -0.34907,-0.0978 -0.54516,-0.019 -1.32034,0.53136 -2.70222,0.73551 -4.11802,0.75506 -0.0966,0.002 -0.19207,0.0633 -0.28811,0.096 -0.45947,0.15469 -0.90975,0.35826 -1.38187,0.45143 -0.81774,0.16159 -1.64986,0.2789 -2.46759,-0.0477 -0.23348,0.10006 -0.46983,0.19954 -0.70618,0.29904 l -2e-5,-3e-5 z m 63.81464,-42.94162 c 0.16102,0.10524 0.21335,0.15239 0.27488,0.17712 0.40599,0.16504 0.79704,0.34158 1.00003,0.77576 0.0374,0.0805 0.16217,0.11961 0.24498,0.17999 0.18229,0.13169 0.37896,0.24786 0.54286,0.3991 0.36861,0.34158 0.83901,0.4428 1.27375,0.64694 0.28812,-0.42842 0.33182,-0.84016 0.27948,-1.26858 -0.89479,-0.2168 -1.85745,-0.24382 -2.23066,-1.30251 -0.4451,0.12536 -0.8557,0.2421 -1.38533,0.39219 z m 13.09762,-13.6284 c -0.59749,0.14261 -0.82521,0.52331 -1.05236,0.85742 0.10178,0.16331 0.18977,0.30478 0.34043,0.54688 0.26855,-0.52905 0.4658,-0.91895 0.71193,-1.4043 z m -14.18046,2.44229 c -0.0374,-0.0322 -0.0748,-0.0638 -0.11214,-0.096 -0.0845,0.10466 -0.16964,0.20932 -0.25475,0.31398 0.0219,0.0201 0.0431,0.0397 0.065,0.0598 z" /><path
               inkscape:connector-curvature="0"
               id="path56"
               style="fill:#ffffff;fill-opacity:1;fill-rule:evenodd;stroke:none;stroke-width:0.97516018"
               d="m 168.02,150.52 c -0.462,0.085 -0.925,0.17 -1.388,0.25501 -0.013,-0.063 -0.026,-0.127 -0.039,-0.19 0.411,-0.304 0.896,-0.308 1.375,-0.334 0.017,0.089 0.035,0.179 0.052,0.26899 z" /></g></g></g><path
         d="m 115.04094,203.35944 h -3.49171 l -6.76604,-8.04317 h -3.79061 v 8.04317 h -2.690113 v -20.23019 h 5.665543 q 1.83416,0 3.05694,0.24455 1.22278,0.23097 2.201,0.84236 1.1005,0.69291 1.71189,1.75265 0.62498,1.04616 0.62498,2.66294 0,2.18742 -1.1005,3.66834 -1.1005,1.46733 -3.02978,2.21458 z m -6.29051,-14.53748 q 0,-0.86953 -0.31249,-1.53527 -0.2989,-0.67932 -1.0054,-1.14125 -0.58421,-0.39401 -1.38581,-0.54346 -0.8016,-0.16304 -1.88851,-0.16304 h -3.16564 v 7.63557 h 2.71728 q 1.27713,0 2.22818,-0.21738 0.95105,-0.23097 1.61678,-0.84236 0.61139,-0.57063 0.89671,-1.3043 0.2989,-0.74725 0.2989,-1.88851 z"
         style="font-variant:normal;font-weight:normal;font-size:medium;font-family:LibreBaskerville;-inkscape-font-specification:LibreBaskerville-Regular;writing-mode:lr-tb;fill:#fc0657;fill-opacity:1;fill-rule:nonzero;stroke:#fc0657;stroke-width:2.23500239;stroke-opacity:1;stroke-miterlimit:4;stroke-dasharray:none"
         id="path895"
         inkscape:connector-curvature="0" /></g></g></svg>